<?xml version="1.0" encoding="UTF-8"?>
<svg version="1.1" viewBox="0 0 916 884" width="1280" height="1280" xmlns="http://www.w3.org/2000/svg">
<path transform="translate(0)" d="m0 0h916v884h-916z"/>
<path transform="translate(472,169)" d="m0 0h51l28 4 25 6 28 8 24 5h9l3-4 1-3 4 1 3 7h11l8-5 9-11 4-5h3v145l-4-1-10-25-9-22-2-2-3-7-8-13-10-13-11-12-3-3v-2l-4-2-15-12-16-10-16-8-17-6-14-3-21-3h-37l-25 4-17 4-12 5-13 7-14 11-6 7-7 11-5 16v29l6 16 5 9v2l3 1 3 5 8 9 5 3 4 4 6 3 3 3 19 11 22 10 26 10 36 13 9 4 10 4 16 7 8 3 12 6 1-1-5-13-8-20-9-19-9-15-8-11-11-12-12-12-12-9-3-1v-2l-5-2-16-8-11-5-15-5-13-3-28-3-15-1v-3h19l24 3 15 2 29 8 9 2 8 3 24 6 13 2h16l12-6 10-12 3-5 3 1 1 144 16 8 18 11 9 6 20 16v2l4 2 2 4 2 1v3h2l5 9 5 10 5 15 2 15v31l-3 14-5 12-3 9h-2l-2 6-5 7-1 3-5 4-7 8-9 9-11 8-1 2-5 2-2 2h-3l1-5 5-10 5-22 2-11v-22l-3-16-6-16-8-13-1-3-3-1-3-5-7-6-5-4-11-8-3-1v-2l-5-1-10-6-22-10v-2l-5-1-13-5-21-9-10-4-24-9-38-15-16-7-16-9-8-6-3-1-1-2-3-1-1-2-5-3-5-5-9-8-8-10-8-11v-2h-2l-3-7-3-5-5-15-2-16h-2v-19l3-12-10 4-9 7-9 8-1 2h-2l-2 4-5 8-5 14-1 4v24l2 8 6 17 5 7 9 9v2l4 2 7 6 9 7 20 12 13 5 9 5 8 3 9 4 13 4 11 5 10 4 14 4 8 4 32 12 2 1v2l9 3 23 11v2l8 2 1 3 5 1 14 9 10 8 11 10 9 11 5 7 8 17 4 16 2 19v12l-1 9-4 13-2 9h-2l-2 10-11 17-7 9-12 12-2 3h-3v2l-4 1v2l-7 4-5 3-7 4-19 9-18 7-11 2-20 4-9 2h-62l-9-2-11-1-8-3-18-4-24-7-8-3-16-4-12-2h-16l-10 4-8 7-6 10-4 2-1-1v-146h2l6 12 11 28 4 10 5 10v2h2l3 6 7 11 5 5 8 10 11 11 5 3v2l4 2 18 12 17 9 13 5 10 3 16 3 19 3h29l15-2 28-7 22-11 7-4 1-2 3-1 5-6 8-7 9-14h2l1-5 4-10v-5l-8 1h-40l-26-3-25-6v-2h-6l-1-1-7-1-3-2-15-4-31-7-6-1h-8l-10 3-6 4-11 12-3 4h-3v-110l1-32 2-2 4 6 5 14 2 3 3 10 16 32 5 7v2h2l3 5 9 11 12 12 11 9 17 11 7 3v2l7 2 8 4 23 7 25 3 5 2h44l2-19-1-14-5-17-8-13-6-8-17-13-2-1v-2l-4-1-5-3v-2l-4-1-19-10-15-7-29-12-16-6-65-26-9-4-19-9-3-3-8-4-7-5v-2l-4-2-11-10-7-6-8-10-10-16-8-19-2-7-3-13v-22l1-1 2-11 6-17 9-15 8-10 11-11 14-10 11-7 21-9 5-2 7-1 10-19 8-12 12-13 17-13 17-10 20-8 17-5 16-3z" fill="#F8C344"/>
<path transform="translate(310,378)" d="m0 0 4 2v2l4 2 7 6 9 7 20 12 13 5 9 5 8 3 9 4 13 4 11 5 10 4 14 4 8 4 32 12 2 1v2l9 3 23 11v2l8 2 1 3 5 1 14 9 10 8 11 10 9 11 5 7 8 17 4 16 2 19v12l-1 9-4 13-2 9h-2l-2 10-11 17-7 9-12 12-2 3h-3v2l-4 1v2l-7 4-5 3-7 4-19 9-18 7-11 2-20 4-9 2h-62l-9-2-11-1-8-3-18-4-24-7-8-3-16-4-12-2h-16l-10 4-8 7-6 10-4 2-1-1v-146h2l6 12 11 28 4 10 5 10v2h2l3 6 7 11 5 5 8 10 11 11 5 3v2l4 2 18 12 17 9 13 5 10 3 16 3 19 3h29l15-2 28-7 22-11 7-4 1-2 3-1 5-6 8-7 9-14h2l1-5 4-10v-5l-8 1h-40l-26-3-25-6v-2h-6l-1-1-7-1-3-2-15-4-31-7-6-1h-8l-10 3-6 4-11 12-3 4h-3v-110l1-32 2-2 4 6 5 14 2 3 3 10 16 32 5 7v2h2l3 5 9 11 12 12 11 9 17 11 7 3v2l7 2 8 4 23 7 25 3 5 2h44l2-19-1-14-5-17-8-13-6-8-17-13-2-1v-2l-4-1-5-3v-2l-4-1-19-10-15-7-29-12-16-6-65-26-9-4-19-9-3-3-8-4-7-5v-2l-4-2-7-6v-3l-2-1-2-6v-9l2-10h2l2-5 3-4h2v-3h2l-1-3 2-1 1-4h2l-1-5 2-3h2l2-4h2v-3z" fill="#A46C2A"/>
<path transform="translate(332,264)" d="m0 0h4l-1 8-1 4-1 19h2l4 19 4 12 5 8v4h2l7 11 9 10 5 6 8 6 3 4 4 2v2l4 1v2l4 1 10 7 17 9 37 15 28 11 14 5 12 5 22 9 10 4-3 2-3 3-1 6 3 9v6l-7 2-1 3-6 2v2h-2l-3-3-6-2v-2l-9-3-23-11v-2l-10-3-31-12-10-4-10-3-15-6-9-3-10-4-8-4-7-3-10-5-10-4-14-8-10-7-7-5-5-5-7-6-3-4v-2l-3-1-6-9-6-17-1-6v-24l4-13 6-12 4-5h2l2-4 11-10 10-6z" fill="#020100"/>
<path transform="translate(310,378)" d="m0 0 4 2v2l4 2 7 6 9 7 20 12 13 5 9 5 8 3 9 4 13 4 11 5 10 4 14 4 8 4 32 12 2 2-5-1-7-1-4 2-3 5-6 3-6 7-4 11h-2l-2 4-4 1-1 14-1 5-3 5-4 1-15-6-11-5-17-6-8-4-9-3-30-12-9-4-19-9-3-3-8-4-7-5v-2l-4-2-7-6v-3l-2-1-2-6v-9l2-10h2l2-5 3-4h2v-3h2l-1-3 2-1 1-4h2l-1-5 2-3h2l2-4h2v-3z" fill="#A46C2A"/>
<path transform="translate(593,394)" d="m0 0 5 2 17 9 15 10 5 3 20 16v2l4 2 2 4 2 1v3h2l5 9 5 10 5 15 2 15v31l-3 14-5 12-3 9h-2l-2 6-5 7-1 3-5 4-7 8-9 9-11 8-1 2-5 2-2 2h-3l1-5 5-10 5-22 2-11v-22l-3-16-6-16-8-13-1-3-3-1-3-5-7-6-5-4-11-8-3-1v-2l-5-1-6-6-2-9 3-11h2l2-6 6-10 3-8h2v-4l2-1 1-9 4-5z" fill="#A36C2A"/>
<path transform="translate(406,245)" d="m0 0h19l24 3 15 2 29 8 9 2 8 3 24 6 13 2h16l12-6 10-12 3-5 3 1 1 144 2 4-4 5-1 9-3 1v4h-2l-3 9-8 15h-2l-2 13 1 7 4 2-2 1-25-12-3-1v-2l-5-1-13-5-21-9-10-4-11-4v-2h2v-2l4-3v-14l8-9h2l2-10 6-9 10-4h2l1-6-3-1 2-1 10 2 9 4 10 4 16 7 8 3 12 6 1-1-5-13-8-20-9-19-9-15-8-11-11-12-12-12-12-9-3-1v-2l-5-2-16-8-11-5-15-5-13-3-28-3-15-1z" fill="#FAD36A"/>
<path transform="translate(396,294)" d="m0 0 2 1 3 5 8 9 5 3 4 4 6 3 3 3 19 11 22 10 26 10 30 11-4 1 2 4-5 5-7 2h-2l-2 5-3 4-3 10-7 6-2 4v14l-5 2v2l-5 1-48-19-16-7-16-9-8-6-3-1-1-2-3-1-1-2-5-3-5-5-9-8v-3l-1-2-1-6 5-6 5-9 1-4 3-3 5-9 2-6v-3l3-5 4-1-1-8 3-1 2 1z" fill="#A46C2A"/>
<path transform="translate(391,194)" d="m0 0 2 1-2 3h-3l-2 4h-2v2l-3 3h-2l-2 4h-2l-2 5-6 7-5 4-9 15-2 5-6 11-3 8h-2l-1 4-4 1 1-7-10 4-9 7-9 8-1 2h-2l-2 4-5 8-5 14-1 4v24l2 8 6 17 5 7 5 5v3l-3 3h-3v3l-6 5-1 7h-2l-1 5-1 3h-2v3h-2l-5 10h-1l-2 10v9l1 5 4 2-3 1-5-4-7-8-6-7-10-16-8-19-2-7-3-13v-22l1-1 2-11 6-17 9-15 8-10 11-11 14-10 11-7 21-9 5-2 7-1 10-19 8-12 12-13 17-13z" fill="#FAD369"/>
<path transform="translate(471,458)" d="m0 0 7 1 20 9 17 8v2l8 2 1 3 5 1 4 4v2l4 2-2 5-5 10h-2v2h-2v8l-6 11h-2v3h-2l-2 4-3 3-2 1-3 8 1 2-1 2-3-1 1-7h-2v-2h-2v9l-6-2-5-3v-2l-4-1-19-10-15-7-17-7-1-4 3-1 2-5v-9l2-7h2l1-2 3-3h2l1-4 3-9 7-7 5-1 2-5z" fill="#FEEF9F"/>
<path transform="translate(532,487)" d="m0 0 5 2 14 10 8 8 5 4 9 11 5 7 8 17 1 17h-5v-2l-4 1-1 2-5 2-5 9-4 13-5 9-3 3-1 2h-2l-2 7-3 1-1 7h-2v6h-2v2h-3l1 3h-2l-1 4v-21l-3-16-5-13-9-13-5-5-8-7-9-6 2-1-1-4 1-5h2v2h2v7l2 1-1-5 4-8 4-1 3-6h2v-3h2l2-5 3-6 1-8h2v-2h2l2-6 4-7-1-3-3-3z" fill="#C69332"/>
<path transform="translate(326,491)" d="m0 0 4 5 5 11 3 7 3 10 16 32 5 7v2h2l3 5 9 11 12 12 11 9 17 11 7 3v2l7 2 8 4 7 2v2l4 1v2h-11l-4-1v-2h-6l-1-1-7-1-3-2-15-4-31-7-6-1h-8l-10 3-6 4-11 12-3 4h-3v-110l1-32z" fill="#C79433"/>
<path transform="translate(593,394)" d="m0 0 5 2 17 9 15 10 5 3 20 16v2l4 2 1 5-6 2-6-1-4 3h-2v9l-4 4-2 6-2 2-3 7-4 8-2 6h-2v9l3 9v6l-3-1-8-14-2-4-3-1-3-5-7-6-5-4-11-8-3-1v-2l-5-1-6-6-2-9 3-11h2l2-6 6-10 3-8h2v-4l2-1 1-9 4-5z" fill="#C69332"/>
<path transform="translate(452,337)" d="m0 0 5 1 21 9 38 14 8 3-4 1 2 4-5 5-7 2h-2l-2 5-3 4-3 10-7 6-2 4v14l-5 2v2l-5 1-48-19-9-4v-6l5-5h2l3-9 3-1 2-11h2l2-5 8-8 1-2h2v-2h2v-6l-3-3v-3h-2z" fill="#C69332"/>
<path transform="translate(410,434)" d="m0 0 7 1 10 4 14 4 8 4 32 12 2 2-5-1-7-1-4 2-3 5-6 3-6 7-4 11h-2l-2 4-4 1-1 14-1 5-3 5-4 1-15-6-11-5-17-6-8-4-9-3-5-2v-3l3 1h12l1-3-1-9 10-17 1-4 4-6h2l2-5 1-2h4l1-3 5-4z" fill="#C59232"/>
<path transform="translate(680,172)" d="m0 0h3v145l-4-1-10-25-9-22-2-2-3-7-8-13-10-13-11-12-3-3v-2l-4-2-8-7 2-2 7-2-2-4 3-7 11 1h25l9-5 8-9z" fill="#FEEE9E"/>
<path transform="translate(420,512)" d="m0 0 9 3 14 6 8 3 15 7 19 10 4 2v2l5 2 4 2v2l5 2 11 9 4 4-4-1-3-1-1 7-4 1-1 8-5 6-21 5h-9l-6-3-5-8-10-8-5-3-12-4-8-6-3-5-3-9-6-8-1-6 1-6h3v-2h3z" fill="#150B06"/>
<path transform="translate(518,364)" d="m0 0 12 2 9 4 10 4 18 8 1 3-1 8-3 5-3 15-5 6-3 8-4 6-4 4-3 8 1 2-8-1-9-4-21-9-10-4-11-4v-2h2v-2l4-3v-14l8-9h2l2-10 6-9 10-4h2l1-6-3-1z" fill="#FEEF9F"/>
<path transform="translate(233,565)" d="m0 0h2l6 12 11 28 4 10 5 10v2h2l3 6 7 11 5 5 1 2h-2l1 5 2 1 4 10 3 4 1 6-4 2-16 3-5 3h-3l-1 3-11 6-3 5-6 9-4 4-2-1z" fill="#A16A2A"/>
<path transform="translate(382,240)" d="m0 0h1l1 27 6 16 6 11v2l-4 1 1 4-1 3-4 1-1 4-2 3 1 2-4 9-6 9-2 5-6 9-3 5 1 5 2 4-4-2-10-12-4-6v-2h-2l1-3-2-3-1-11 2-12 2-6 3-7h2v-5l2-1 2-6h2l1-4 3-2 1-10h3l1-4 9-2v-3h2z" fill="#C69332"/>
<path transform="translate(489,426)" d="m0 0 11 4 12 5 22 9 10 4-3 2-3 3-1 6 3 9v6l-7 2-1 3-6 2v2h-2l-3-3-6-2v-2l-9-3-23-11v-2l-10-3-1-4-9-6 3-1 4 1 2-4v-6l2-2 2-6 3-2 7 2h5l-2-1z" fill="#583A1B"/>
<path transform="translate(310,378)" d="m0 0 4 2v2l4 2 7 6 11 8 1 3h-3v4l-5 5-5 10-4 7-5 11-2 5-5 6-2-1-3 3v8l-5-1-3-2v-2l-4-2-7-6v-3l-2-1-2-6v-9l2-10h2l2-5 3-4h2v-3h2l-1-3 2-1 1-4h2l-1-5 2-3h2l2-4h2v-3z" fill="#C69332"/>
<path transform="translate(406,245)" d="m0 0h19l24 3 15 2 29 8 9 2 8 3 24 6 13 2h16l10-5 4 1 1 6-3 8-3 1-2 7-3 6-3 5h-2l-1 5h-3l-1 3-5 1-4-3v-2l-6-2-5-6-8-7-9-7-5-2-6-3v-2l-5-2-16-8-11-5-15-5-13-3-28-3-15-1z" fill="#C69332"/>
<path transform="translate(437,519)" d="m0 0 12 4 8 4 23 11 9 5v2l5 2 4 2v2l2 1-2 2 5 6v6h-5l-4-1h-3v2l-6 4-5 6-4 1-5-9-9-1-5-2-3-2-1-9h-10l-9-7-1-1v-6l1-4-5-3v-2l5-1-3-3 1-5 1-2z" fill="#2B190C"/>
<path transform="translate(604,203)" d="m0 0 5 3 11 9 15 15 10 13 6 8 3 5v2h-3l-2 5-2 7-2 1-13-4-14-10-7-6-5-8-1-3h-2l-4-10-2-9-4-5-6-1 1-2h2v-2l7-4h6z" fill="#160B06"/>
<path transform="translate(391,194)" d="m0 0 2 1-2 3h-3l-2 4h-2v2l-3 3h-2l-2 4h-2l-2 5-6 7-5 4-9 15-2 5-6 11-3 8h-2l-1 4-4 1 1-7-10 4-9 7-9 8-1 2h-2l-2 4-5 8-5 14-3 20h-1l-1-12h-2l-1-5 2-8 3-5 2-7 2-3v-5h-5v2h-3l-2 4-12 9-5 5-1 4h-2l-2 4-3 3-2 5-7 10-4 13h-1v-8l6-17 9-15 8-10 11-11 14-10 11-7 21-9 5-2 7-1 10-19 8-12 12-13 17-13z" fill="#FDEC9A"/>
<path transform="translate(288,359)" d="m0 0 8 1 5 5 4 6 5 5v3l-3 3h-3v3l-6 5-1 7h-2l-1 5-1 3h-2v3h-2l-5 10h-1l-2 10v9l1 5 4 2-3 1-5-4-7-8-4-8-5-11h3l1-8 1-4 2-9 3-9 5-10h2l2-8 5-6z" fill="#F9C342"/>
<path transform="translate(589,271)" d="m0 0h1v90l-6-1-1 17-2-1-8-20-9-19-9-15 1-2 4 3 3-1v-3h2l2-5h2l1-7 3-1 5-10 3-1 1-7 4-7 2-1z" fill="#FEEF9F"/>
<path transform="translate(326,491)" d="m0 0 4 5 5 11 3 7 3 10 13 26-1 4v4l-1-2-9 3h-4v2l-4 2-7 14-1 7-2 51h-1v-110l1-32z" fill="#9D6829"/>
<path transform="translate(513,476)" d="m0 0h2v2l8 2 1 3 5 1 4 4v2l4 2-2 5-5 10h-2v2h-2v8l-6 11h-2v3h-2l-2 4-3 3-2 1-3 8 1 2-1 2-3-1 1-7h-2v-2h-2v9l-6-2-5-3v-2l-4-1 5-5 4-7 2-5 6-11 4-4h2l2-4 4-10h2l-3-17z" fill="#F9D268"/>
<path transform="translate(277,651)" d="m0 0h3l6 8 11 11 5 3v2l4 2 18 12 17 9 13 5 10 3 11 2 2 3h-16l-5-2-18-4-24-7-8-3-16-4-12-2h-16l-10 4-4 3-2-1 9-6 4-2 1-2 8-4 19-4-1-7-3-3-4-10z" fill="#C49132"/>
<path transform="translate(567,382)" d="m0 0 6 2 10 5-1 2-3 1 1 4 2-2h2l-1 13-2 4-3 2-4 13-5 6-5 11-3 3v6l-3 3-5-1-9-4v-2l-4-1 5-12 4-2 5-10 2-5 4-5 3-15 4-8z" fill="#FAD269"/>
<path transform="translate(680,172)" d="m0 0h3v145l-4-1-10-25-9-22-2-4h2v-5l2-1 2 7 4-9 4-8h2l1-8 2-2 3-11 1-9 1-46z" fill="#C59133"/>
<path transform="translate(472,169)" d="m0 0h51l28 4 25 6 28 8 24 5h9l3-4 1-3 4 1 3 7 9 1v1h-25l-11-1-2 7 2 3-3 2-8 2-9-7-13-8-16-8-17-6-14-3-21-3h-44l-8-2z" fill="#C69332"/>
<path transform="translate(599,208)" d="m0 0 8 2 1-2h3l8 6 16 16 10 13 2 10-2 5-7-1-11-7v-2l-4-2-10-10-2-5v-3h-2l-2-5-2-7-5-3v-2h-6l2-2z" fill="#2D1A0C"/>
<path transform="translate(644,166)" d="m0 0 11 3v2l7 1 2 3 1 8-1 2 5 1-4 5-6 3h-11l-3-5-1-3-3-1-1 5-3 3h-9l-15-3 4-1 1-5 3-6 4-4 6-2 7-1z" fill="#2C1A0C"/>
<path transform="translate(380,243)" d="m0 0h1l1 12v11h-1v-7h-2v3l-9 3-1 3-2 1v5l-1 5-4 1-1 4h-2l-2 7-2 5h-2l-2 7-3 9v6l-1 3v6l2 6 1 4-4-4-4-7-3-9 1-3 2-2 1-17 3-9 3-4 2-2v-5h2l2-7 4-4 3-6h2l2-5h4v-3l2-1-1-2 2-3z" fill="#EBB438"/>
<path transform="translate(523,346)" d="m0 0 6 1 3 2v2l4 1 6 2h6v2h3v2h3v2l4 1 6 8h5l1 8-4 2 1 3-9-3-15-7-12-4-12-5-9-3 4-2 5-10z" fill="#2E1B0C"/>
<path transform="translate(532,487)" d="m0 0 5 2 4 5 6 4 4 4-2 2-2-1-1 2-6 2-3 4-3 12-4 2-1 4-4 8h-2v2h-2l-2 4-3 8 2 6 4 9 1 4-4-2-5-5-11-9-5-4h2l-1-4 1-5h2v2h2v7l2 1-1-5 4-8 4-1 3-6h2v-3h2l2-5 3-6 1-8h2v-2h2l2-6 4-7-1-3-3-3z" fill="#EAB338"/>
<path transform="translate(518,364)" d="m0 0 12 2 5 2-3 1 1 4-10 7-4 5-4 4-5 10-6 6-2 14-4 7-5 2-9-3v-2h2v-2l4-3v-14l8-9h2l2-10 6-9 10-4h2l1-6-3-1z" fill="#FAD269"/>
<path transform="translate(681,193)" d="m0 0h1v26l-1 9-3 11-3 5-1 5h-2l-2 6-6 12h-1l-2-6v6l-5-5-5-9 2-1 3-11 3-7h2v-2h2v-2h2v-2l2-1 1-3h2l2-7 5-11 2-8h2z" fill="#FAD369"/>
<path transform="translate(299,368)" d="m0 0 2 1 1-1 5 4 3 4v3l-3 3h-3v3l-6 5-1 7h-2l-1 5-1 3h-2v3h-2l-5 10h-1l-2 10v9l1 5 4 2-3 1-5-5v-2l-1-3-3-3v-3h-2l-1-4 2-6h2l-1-7v-3l3-3 3-9 3-6h2v-2h2l-1-3h2l2-10 7-1 2-1-2-4z" fill="#EBB437"/>
<path transform="translate(465,417)" d="m0 0 24 9v2l3 1-4 1-8-1h-3l-3 7-1 2-1 7-2 3-6-1 9 6v2l3 1h-6l-26-10v-1l6-2-4-4 1-3 5-5 1-5 7-6 4 1h3z" fill="#170C06"/>
<path transform="translate(541,449)" d="m0 0 6 1 8 4 5 12-1 7-5 8h-6l1 7-2 2-5-1 4 6-4-2-16-10v-2l6-3 3-3 4-1-1-9-2-7 1-5z" fill="#2C190C"/>
<path transform="translate(471,458)" d="m0 0 7 1 5 2v1l-8 2-5 8h-2l-1 3-5 2-2 7-4 10-5 6-2 5-1 10-2 5-5 1-8-4v-3l3-1 2-5v-9l2-7h2l1-2 3-3h2l1-4 3-9 7-7 5-1 2-5z" fill="#FAD369"/>
<path transform="translate(521,336)" d="m0 0 7 1 5 3 10 2 10 4 10 8 7 8 4 7 2 7v6l3 3 1 2-6-1-8-5v-2l3-2v-8l-5 1-4-4-3-5-3-1v-2h-3v-2l-12-2-7-3v-2l-9-2-4 2-3 9h-1l-1-10 1-4h2l1-6z" fill="#160B06"/>
<path transform="translate(554,455)" d="m0 0 6 1 8 4-4 1 3 7 3 8 2 4-1 17 1 2-3 3-5-2-7 1 2 4 2 3-4-2-15-15v-2h5l1-2v-6h6l2-5 3-6-1-6-2-4v-4z" fill="#160C06"/>
<path transform="translate(525,685)" d="m0 0h5v2l-7 4-19 9-18 7-11 2-20 4-9 2h-62l-9-2-11-1v-1l12-1 4-1 19 3h29l15-2 28-7 22-11h2l-1 3-5 3h-2v2l2-1h8l4-3 4-1 10-4v-1l7-2z" fill="#BA8730"/>
<path transform="translate(390,596)" d="m0 0 4 2 11 8 13 8 5 2v2l7 2 8 4 7 2v2l4 1v2h-11l-4-1v-2h-6l-1-1-7-1-3-2-15-4-17-4-1-3 5-2 1-4 2-4-2-4z" fill="#FDEC9A"/>
<path transform="translate(447,523)" d="m0 0 5 2 16 7 17 9 4 3-4 2-2 13-4 1-4-5-2-1-1-4-7-4-4-2-2-4-4-2v-2h-7l-4-5 1-5 2-1z" fill="#5B3D1C"/>
<path transform="translate(579,390)" d="m0 0h10v2l4 2v4l-3 4-1 9-3 1v4h-2l-3 9-8 15h-2l-2 13 1 7 4 2-2 1-15-7 2-4h2l-1-6 2-3h2l2-6 3-6 4-5 4-13 4-2 2-16-4 2-1-5z" fill="#EAB338"/>
<path transform="translate(391,194)" d="m0 0 2 1-2 3h-3l-2 4h-2v2l-3 3h-2l-2 4h-2l-2 5-6 7-5 4-9 15-2 5-6 11-3 8h-2l-1 4-4 1 1-7-2-1 3-1 4-11v-3l7-14 8-11 11-12 17-13z" fill="#F8D26A"/>
<path transform="translate(644,160)" d="m0 0h7l13 4 5 4 1 8 3 2h2l-2 4-3 4-6-1-1-10-1-3-7-1v-2l-11-2-6 5-10 2-5 3-3 4-3 8h-8l3-1v-9l7-8h2v-2l5-2 6-3 8-2z" fill="#160C06"/>
<path transform="translate(588,248)" d="m0 0 3 1v19l-2-3-3 5-4 6-4 4-2 3h-2l-2 8h-2l-1 5-2 3h-2v4l-4 4-4 10h-4v-3l-3 1-9-11-17-17-9-7h3l6 4 10 9 9 9 5 2v2l4 2 4 1 2-4h3l1-5h2l1-5 2-1 4-10 4-5 2-8-1-3-2-1 13-17z" fill="#EBB438"/>
<path transform="translate(406,245)" d="m0 0h19l24 3 15 2 29 8 9 2v3l8 3 9 1v2h2l1 4-1 2-5-1v-2l-6-1-3-2-8-4-7-1-8-4v2l-10-3-16-5-17-3-35-3z" fill="#B8842F"/>
<path transform="translate(459,454)" d="m0 0 8 1 5 2-1 2-4 2-3 5-6 3-6 7-4 11h-2l-2 4-4 1-1 14-1 5-3 5-4 1-8-4v-2l4-3h5l1-11 5-10 5-7 2-6 2-1 2-4h2l1-3 6-2 1-3z" fill="#EBB539"/>
<path transform="translate(687,200)" d="m0 0 6 1v2l5 2 5 4 1 7-3 7-4 8-5 7-4-1-1-3-1-22z" fill="#150B06"/>
<path transform="translate(511,361)" d="m0 0 8 1 5 2-4 1 2 4-5 5-7 2h-2l-2 5-3 4-3 10-7 6-2 4v14l-5 2v2l-5 1-7-3v-2h3l1-2 6-3 2-2-1-7 1-2h2l2-4 4-4 2-9 3-4 3-5 5-4 6-2 1-5-2-1 1-2h-2z" fill="#EAB339"/>
<path transform="translate(644,173)" d="m0 0 8 6 3 3v2h3l3 9-2 1h-11l-3-5-1-3-3-1-1 5-3 3h-9l-6-1v-1l5-1 2-6 4-1 5-2 3-7z" fill="#56391B"/>
<path transform="translate(474,421)" d="m0 0 10 3 5 2v2l3 1-4 1-8-1h-3l-3 7-1 2-1 7-2 3-6-1 9 6v2l3 1h-6l-8-3 3-2v-2l-6-2-7-5v-1h7l7 3-1-2v-8l2-6 4-2 1-3h2z" fill="#2B190C"/>
<path transform="translate(680,228)" d="m0 0h1v8l-3 13-3 4-3 9-2 5 1 7 1 5v11l1 4-3-1-10-24-2-4h2v-5l2-1 2 7 4-9 4-8h2l1-8 2-2z" fill="#EAB43A"/>
<path transform="translate(641,185)" d="m0 0 4 1 3 7 9 1v1h-25l-11-1-2 7 2 3-3 2-8 2-9-7-6-4v-2l5 2 1 1 8 1 3-2v-5l1-1h9l6 1h9l3-4z" fill="#E9B239"/>
<path transform="translate(604,212)" d="m0 0 5 1 3 1 1-2h3l7 5 7 8 5 6h-2l5 7-1 5-5-2-7-6-3-6-9-10-9-6z" fill="#593B1B"/>
<path transform="translate(590,323)" d="m0 0h1v69h-2v-2l-3-1-4-9v-11l1-9 5-1 1 1z" fill="#EBC15C"/>
<path transform="translate(329,693)" d="m0 0 4 1 18 8 13 4 11 2 2 3h-16l-5-2-18-4-10-4v-2l-2-1z" fill="#F7E28F"/>
<path transform="translate(472,169)" d="m0 0h51l28 4v1h-12v1l-11-1-8-1h-44l-8-2z" fill="#C18E31"/>
<path transform="translate(481,255)" d="m0 0 18 4 4 2-1 2 8 3 9 1v2h2l1 4-1 2-5-1v-2l-6-1-3-2-8-4-7-1-8-4v2l-7-2 1-4z" fill="#A7712B"/>
<path transform="translate(461,171)" d="m0 0h12l3 2-7 2-28 6-4 1v-2l-4-1-1-2 14-4z" fill="#D29D33"/>
<path transform="translate(515,279)" d="m0 0 5 2 10 8 8 7 5 6 5 2v2l4 2 4 1 2-4 4-1-3 9-3 4h-3v-3l-3 1-9-11-17-17-9-7z" fill="#EDB83F"/>
<path transform="translate(532,649)" d="m0 0 1 4-3 7-8 12h-2l1 3-3 3-5 3h-2l-1 3-5 4-2 3-7 2 5-7 3-1 5-6 8-7 9-14h2l1-5z" fill="#B3822E"/>
<path transform="translate(621,193)" d="m0 0 11 1-3 1-2 9-6 10-4-1-6-5 2-2 7-2-2-4z" fill="#F9D064"/>
<path transform="translate(376,709)" d="m0 0 16 2 7 1h36l-1 2-3 1h-47l-9-2-11-1v-1l12-1z" fill="#C49132"/>
<path transform="translate(390,596)" d="m0 0 4 2 3 3 3 4-1 7h-2v2l-4 3-8-1-1-3 5-2 1-4 2-4-2-4z" fill="#F7D067"/>
<path transform="translate(465,704)" d="m0 0 3 1-7 3 3 2-9 3-9 2h-15l5-4 17-3z" fill="#AD7C2D"/>
<path transform="translate(445,627)" d="m0 0 6 1 15 4 8 2 10 1 2 2h-16l-11-1-16-4v-1h6v-2z" fill="#BD8A30"/>
<path transform="translate(538,173)" d="m0 0 17 1 21 5 8 3v2l-7-1-8-3h-11l-17-4z" fill="#DCA536"/>
<path transform="translate(471,633)" d="m0 0 15 1 5 2h42v2l-8 1h-40l-8-1v-1l7-1-13-2z" fill="#996528"/>
<path transform="translate(424,620)" d="m0 0h6l8 4 7 2v2l4 1v2h-11l-4-1v-2h-6l3-2-7-2z" fill="#F2CB65"/>
<path transform="translate(329,693)" d="m0 0 4 1 11 5-2 1-1 5-9-2-4-2v-2l-2-1z" fill="#F1BB40"/>
<path transform="translate(641,185)" d="m0 0 4 1 3 7 9 1v1h-25l-13-3 3-1 6 1h9l3-4z" fill="#AA732C"/>
<path transform="translate(244,371)" d="m0 0h1l4 15 2 3 1 7 3 5 2 5 2 8-4-4-8-19-2-7-1-5z" fill="#FBE794"/>
<path transform="translate(360,219)" d="m0 0v3l-7 12-4 7h-2l-2 6-3 1 1-5 9-15z" fill="#F9E592"/>
<path transform="translate(532,649)" d="m0 0 1 4-3 7-8 12-5 3-2-1 7-9 4-7h2l1-5z" fill="#B07F2E"/>
<path transform="translate(406,245)" d="m0 0h19l8 2-1 2h-11l-15-1z" fill="#C49031"/>
<path transform="translate(428,178)" d="m0 0h5l4 2v3l-9 4h-2l-1-3-4-2v-2z" fill="#ECB741"/>
<path transform="translate(472,169)" d="m0 0h12v1l30 1v1l-38 1-8-2z" fill="#AB762C"/>
<path transform="translate(521,355)" d="m0 0 8 3 8 5v2h-6l-11-5z" fill="#56391B"/>
<path transform="translate(438,175)" d="m0 0h8v1l5 1-1 2-9 2-4 1v-2l-4-1-1-2z" fill="#EBB640"/>
<path transform="translate(234,566)" d="m0 0 4 4 3 7v6l-2-2h-3-1l-1-5z" fill="#B8862F"/>
<path transform="translate(445,627)" d="m0 0 6 1 10 3v2l4 1h-13l-9-2v-1h6v-2z" fill="#D8A337"/>
<path transform="translate(409,622)" d="m0 0 10 2 1 1 7 1 7 2v2h-13l-2-3-5-1v-2l-3 1-2-1z" fill="#452D13"/>
<path transform="translate(341,528)" d="m0 0 4 4 6 12v4h-2l-5-6-2-10z" fill="#B3812E"/>
<path transform="translate(335,275)" d="m0 0 1 4v9l1 8v10h-1l-1-11h-2v-19z" fill="#DCB254"/>
<path transform="translate(523,170)" d="m0 0 14 1 14 2v1h-12v1l-11-1-8-1z" fill="#BC8730"/>
<path transform="translate(467,252)" d="m0 0 8 1 6 2-3 1v2l2 1-9-1-6-2z" fill="#B27D2E"/>
<path transform="translate(461,171)" d="m0 0h12l3 2-7 2h-11l-3-2z" fill="#E2AC3B"/>
<path transform="translate(515,279)" d="m0 0 5 2 10 8 8 7-1 3-7-6-11-10z" fill="#E1AE42"/>
<path transform="translate(525,685)" d="m0 0h5v2l-7 4-10 5h-2l2-4 2-2 7-2z" fill="#BD8930"/>
<path transform="translate(240,699)" d="m0 0 3 1-5 10-4 2v-8l4-4 1 1z" fill="#C49032"/>
<path transform="translate(334,696)" d="m0 0 5 1 5 2-2 1-1 5-9-2-1-2 6-2z" fill="#EBC25E"/>
<path transform="translate(536,603)" d="m0 0h1l1 14-2 16-1 3h-7l4-2 1-2h2z" fill="#372311"/>
<path transform="translate(619,201)" d="m0 0 2 3-3 2-8 2-4-5 8-1z" fill="#F5C146"/>
<path transform="translate(333,507)" d="m0 0h2l3 7 3 10-1 3-6-11z" fill="#B5842F"/>
<path transform="translate(249,394)" d="m0 0h2l3 5 3 7 2 8-4-4-6-14z" fill="#FEED9A"/>
<path transform="translate(376,709)" d="m0 0 9 1v2h5v1h-15l-11-1v-1l12-1z" fill="#DAAF52"/>
<path transform="translate(562,177)" d="m0 0h7l15 5v2l-7-1-15-5z" fill="#E5B03B"/>
<path transform="translate(500,541)" d="m0 0h2v2h2v7l2 2-5 1-3-3h2l-1-4z" fill="#F3BD41"/>
<path transform="translate(320,271)" d="m0 0 2 1-18 18-2-1 3-4h2l2-4z" fill="#3F2A11"/>
<path transform="translate(564,179)" d="m0 0 8 1 6 3v1h-9l-7-3z" fill="#CC9834"/>
<path transform="translate(571,287)" d="m0 0 2 2-1 2h-2l-1 5-2 3h-2v4l-4 1 1-4h2l1-5 2-1 2-5z" fill="#ECB538"/>
<path transform="translate(385,711)" d="m0 0 14 1-3 1v2h-12l-3-2z" fill="#AD7C2D"/>
<path transform="translate(588,248)" d="m0 0 3 1v19h-1l-1-12-3-2 1-4z" fill="#E2B753"/>
<path transform="translate(244,346)" d="m0 0h1l-1 23h-1l-1-6v-14z" fill="#E9CD77"/>
<path transform="translate(330,256)" d="m0 0h6v3h-9l-1 3-4-1v-2z" fill="#E7BF5E"/>
<path transform="translate(465,448)" d="m0 0 8 5v2l3 1h-6l-8-3 3-2z" fill="#34200F"/>
<path transform="translate(392,427)" d="m0 0 11 2 9 4-4 1-15-5z" fill="#AF7D2D"/>
<path transform="translate(500,262)" d="m0 0h7l10 3-2 2-8-1-7-3z" fill="#C59132"/>
<path transform="translate(604,203)" d="m0 0 5 3 2 4h-4l-6-1v-2h2z" fill="#1A0E07"/>
<path transform="translate(579,390)" d="m0 0h6l4 4-7 1-3 2-1-5z" fill="#F8C447"/>
<path transform="translate(481,255)" d="m0 0 2 1 2 2 4 2-3 1-2-1v2l-7-2 1-4z" fill="#A36E2A"/>
<path transform="translate(577,185)" d="m0 0 5 1 12 8-2 1-14-7z" fill="#DFAA38"/>
<path transform="translate(252,692)" d="m0 0 2 1-13 13v-3l8-9z" fill="#24170B"/>
<path transform="translate(585,253)" d="m0 0 4 2v2l-4 1-7 6 2-5z" fill="#ECB945"/>
<path transform="translate(658,265)" d="m0 0 5 3 3 8v3h-2l-5-11z" fill="#E1B756"/>
<path transform="translate(380,201)" d="m0 0 2 1-11 9-3 3-3-1 12-10z" fill="#F6DF89"/>
<path transform="translate(661,259)" d="m0 0 2 3 3 11-2 1-3-7-1-7z" fill="#FAC443"/>
<path transform="translate(438,175)" d="m0 0 3 1v3l-7 1-2-3z" fill="#D39E33"/>
<path transform="translate(519,672)" d="m0 0 2 3-3 3-5 3-2-1 4-5z" fill="#C79433"/>
<path transform="translate(467,252)" d="m0 0 5 1v2l2 1v2l-9-2z" fill="#AE792D"/>
<path transform="translate(454,172)" d="m0 0h5l-1 2 5 1v1l-8 1-5-1z" fill="#C79232"/>
</svg>
